<svg width="156" height="39" viewBox="0 0 156 39" fill="none" xmlns="http://www.w3.org/2000/svg">
<path d="M11.2577 9.1277L0.789062 0.221313L0.824828 2.39941C0.871134 5.21935 1.60686 7.98512 2.96781 10.4554L4.13666 10.6878C6.48987 11.1557 8.73554 12.0572 10.7591 13.3463L13.3091 14.9707C14.2971 15.6001 15.0991 16.482 15.6321 17.5252C16.8069 19.8243 16.9672 22.5098 16.0742 24.9323L15.7214 25.8894L16.8229 23.7294C17.6043 22.1971 18.1659 20.5286 18.1659 18.8085C18.0645 16.17 16.8375 13.7014 14.7954 12.0275L11.2577 9.1277Z" fill="url(#paint0_linear_709_1711)" stroke="#337569" stroke-width="0.1125"/>
<path d="M2.86041 10.234L1.95703 10.1787L2.47922 11.4917C4.35687 16.2129 8.02897 19.9977 12.6913 22.017L14.1793 24.0085L15.6672 26C16.6526 23.1149 15.439 19.9374 12.7811 18.4438L11.3628 17.6468C7.96417 16.1305 5.07858 13.6605 3.05616 10.5364L2.86041 10.234Z" fill="url(#paint1_linear_709_1711)"/>
<path d="M6.3125 34.7404L7.62643 32.7334C8.37855 31.5845 9.39274 30.6307 10.5855 29.9504C11.4048 29.4831 12.181 28.9441 12.9051 28.3397L14.4354 27.0624L15.6652 25.9999L14.1772 24.0085L12.6893 22.017C10.5188 24.4677 8.72787 27.2876 7.48158 30.3148C6.36564 33.0255 6.3125 34.7404 6.3125 34.7404Z" fill="url(#paint2_linear_709_1711)" stroke="#4E3B46" stroke-width="0.1125" stroke-miterlimit="16"/>
<path d="M15.0201 27.8826L11.8945 29.1531L16.252 25.502C18.9561 23.3238 20.0886 19.7354 19.1249 16.3996L18.5902 14.5489L18.0269 12.4965C17.3256 9.94125 19.4079 7.47815 22.0443 7.7446L27.4114 8.51907L27.1043 8.60273C24.0181 9.44346 22.0199 12.4259 22.4163 15.5999C22.4163 15.5999 22.6087 17.9733 22.4163 19.4723C22.3668 19.8577 22.2783 20.2908 22.1736 20.7231C21.7594 22.433 20.7277 23.9101 19.4293 25.0974C18.1362 26.2797 16.6433 27.2228 15.0201 27.8826Z" fill="url(#paint3_linear_709_1711)" stroke="#FCCA76" stroke-width="0.1125" stroke-miterlimit="16"/>
<path d="M5.94165 36.9982L5.78125 38.668C7.53676 37.0598 8.9724 35.1342 10.0125 32.9927L10.8296 31.3106L11.9455 29.0425L10.7233 29.7616C10.7233 29.7616 9.99591 30.1753 9.5542 30.4808C9.14624 30.7629 8.92148 30.9297 8.54453 31.2552C7.79277 31.9045 7.22628 32.7391 6.77377 33.6234C6.74258 33.6843 6.71266 33.7435 6.68463 33.7999C6.19423 34.7866 6.04701 35.9015 5.94165 36.9982Z" fill="url(#paint4_linear_709_1711)" stroke="#5F4956" stroke-width="0.1125" stroke-miterlimit="16"/>
<path d="M16.7031 23.9226L15.569 26.0553C18.775 24.2696 20.3276 20.5101 19.3161 16.9825L18.293 13.4148C17.7764 10.2849 20.4503 7.55517 23.5902 8.00705L27.2659 8.53603L33.9956 7.48266L24.9453 7.64898L24.7079 7.47065C22.161 5.55781 18.212 5.56206 16.7079 8.36971C16.5077 8.74333 16.2743 9.36764 16.2743 9.36764C15.7874 10.9334 15.9225 12.6265 16.6517 14.0952L17.2498 15.2998C18.3176 18.1187 18.1183 21.2611 16.7031 23.9226Z" fill="url(#paint5_linear_709_1711)" stroke="#FDD587" stroke-width="0.1125" stroke-miterlimit="16"/>
<path d="M15.6363 26L15.7432 25.8307C18.5335 21.4106 16.7465 15.7186 12.31 12.9544C11.3251 12.3408 11.3389 12.3603 10.3036 11.8441C9.81742 11.6017 9.19938 11.3555 8.5773 11.1309C6.73933 10.4674 4.7822 10.2343 2.82812 10.2343C4.75335 13.3192 7.49842 15.808 10.7566 17.4227L12.046 18.0616C14.3584 19.0799 15.8138 21.4079 15.7162 23.9328L15.6363 26Z" fill="url(#paint6_linear_709_1711)"/>
<path d="M29.076 28V17.0909H31.0522V21.7092H36.1072V17.0909H38.0888V28H36.1072V23.3658H31.0522V28H29.076ZM44.9177 24.5589V19.8182H46.846V28H44.9763V26.5458H44.8911C44.7064 27.0039 44.4028 27.3786 43.9802 27.6697C43.5612 27.9609 43.0445 28.1065 42.4301 28.1065C41.8939 28.1065 41.4199 27.9876 41.0079 27.7496C40.5995 27.5082 40.2799 27.1584 40.0491 26.7003C39.8183 26.2386 39.7029 25.6811 39.7029 25.0277V19.8182H41.6311V24.7294C41.6311 25.2479 41.7732 25.6598 42.0573 25.9652C42.3414 26.2706 42.7142 26.4233 43.1759 26.4233C43.46 26.4233 43.7352 26.354 44.0015 26.2156C44.2679 26.0771 44.4863 25.8711 44.6567 25.5977C44.8307 25.3207 44.9177 24.9744 44.9177 24.5589ZM48.3789 28V19.8182H50.2219V21.2085H50.3178C50.4882 20.7397 50.7705 20.3739 51.1647 20.1112C51.5589 19.8448 52.0294 19.7116 52.5763 19.7116C53.1303 19.7116 53.5972 19.8466 53.9772 20.1165C54.3607 20.3828 54.6306 20.7468 54.7869 21.2085H54.8721C55.0532 20.7539 55.3586 20.3917 55.7883 20.1218C56.2215 19.8484 56.7347 19.7116 57.3277 19.7116C58.0806 19.7116 58.6949 19.9496 59.1708 20.4254C59.6466 20.9013 59.8845 21.5955 59.8845 22.5082V28H57.9509V22.8065C57.9509 22.2987 57.816 21.9276 57.5461 21.6932C57.2762 21.4553 56.946 21.3363 56.5553 21.3363C56.0901 21.3363 55.7262 21.4819 55.4634 21.7731C55.2041 22.0607 55.0745 22.4354 55.0745 22.897V28H53.1835V22.7266C53.1835 22.304 53.0557 21.9666 52.8 21.7145C52.5479 21.4624 52.2176 21.3363 51.8093 21.3363C51.5323 21.3363 51.2801 21.4073 51.0529 21.5494C50.8256 21.6879 50.6445 21.8849 50.5095 22.1406C50.3746 22.3928 50.3071 22.6875 50.3071 23.0249V28H48.3789ZM61.3908 28V19.8182H63.2338V21.2085H63.3297C63.5001 20.7397 63.7825 20.3739 64.1766 20.1112C64.5708 19.8448 65.0413 19.7116 65.5882 19.7116C66.1422 19.7116 66.6092 19.8466 66.9891 20.1165C67.3727 20.3828 67.6425 20.7468 67.7988 21.2085H67.884C68.0651 20.7539 68.3705 20.3917 68.8002 20.1218C69.2335 19.8484 69.7466 19.7116 70.3396 19.7116C71.0925 19.7116 71.7068 19.9496 72.1827 20.4254C72.6585 20.9013 72.8965 21.5955 72.8965 22.5082V28H70.9629V22.8065C70.9629 22.2987 70.8279 21.9276 70.558 21.6932C70.2881 21.4553 69.9579 21.3363 69.5673 21.3363C69.1021 21.3363 68.7381 21.4819 68.4753 21.7731C68.2161 22.0607 68.0864 22.4354 68.0864 22.897V28H66.1955V22.7266C66.1955 22.304 66.0676 21.9666 65.8119 21.7145C65.5598 21.4624 65.2295 21.3363 64.8212 21.3363C64.5442 21.3363 64.292 21.4073 64.0648 21.5494C63.8375 21.6879 63.6564 21.8849 63.5215 22.1406C63.3865 22.3928 63.319 22.6875 63.319 23.0249V28H61.3908ZM74.4027 28V19.8182H76.3309V28H74.4027ZM75.3721 18.657C75.0667 18.657 74.804 18.5558 74.5838 18.3533C74.3636 18.1474 74.2535 17.9006 74.2535 17.6129C74.2535 17.3217 74.3636 17.0749 74.5838 16.8725C74.804 16.6665 75.0667 16.5636 75.3721 16.5636C75.6811 16.5636 75.9439 16.6665 76.1605 16.8725C76.3807 17.0749 76.4908 17.3217 76.4908 17.6129C76.4908 17.9006 76.3807 18.1474 76.1605 18.3533C75.9439 18.5558 75.6811 18.657 75.3721 18.657ZM79.7921 23.206V28H77.8638V19.8182H79.7069V21.2085H79.8027C79.9909 20.7504 80.291 20.3864 80.7029 20.1165C81.1184 19.8466 81.6316 19.7116 82.2424 19.7116C82.807 19.7116 83.2988 19.8324 83.7179 20.0739C84.1404 20.3153 84.4672 20.6651 84.698 21.1232C84.9324 21.5813 85.0478 22.1371 85.0442 22.7905V28H83.1159V23.0888C83.1159 22.5419 82.9739 22.114 82.6898 21.805C82.4093 21.4961 82.0204 21.3416 81.5233 21.3416C81.1859 21.3416 80.8858 21.4162 80.623 21.5653C80.3638 21.7109 80.1596 21.9222 80.0105 22.1992C79.8649 22.4762 79.7921 22.8118 79.7921 23.206ZM90.1127 31.2386C89.4202 31.2386 88.8254 31.1445 88.3282 30.9563C87.8311 30.7717 87.4316 30.5231 87.1297 30.2106C86.8279 29.8981 86.6184 29.5518 86.5012 29.1719L88.2377 28.7511C88.3158 28.9109 88.4294 29.0689 88.5786 29.2251C88.7277 29.3849 88.9284 29.5163 89.1805 29.6193C89.4362 29.7259 89.7576 29.7791 90.1446 29.7791C90.6915 29.7791 91.1443 29.646 91.5029 29.3796C91.8616 29.1168 92.0409 28.6836 92.0409 28.0799V26.5298H91.9451C91.8456 26.7287 91.7 26.9329 91.5083 27.1424C91.3201 27.3519 91.0697 27.5277 90.7572 27.6697C90.4483 27.8118 90.0594 27.8828 89.5907 27.8828C88.9621 27.8828 88.3922 27.7354 87.8808 27.4407C87.373 27.1424 86.9681 26.6985 86.6663 26.109C86.368 25.516 86.2189 24.7738 86.2189 23.8825C86.2189 22.984 86.368 22.2259 86.6663 21.608C86.9681 20.9865 87.3748 20.516 87.8861 20.1964C88.3975 19.8732 88.9674 19.7116 89.596 19.7116C90.0754 19.7116 90.4696 19.7933 90.7785 19.9567C91.091 20.1165 91.3396 20.31 91.5243 20.5373C91.7089 20.761 91.8492 20.9723 91.9451 21.1712H92.0516V19.8182H93.9532V28.1332C93.9532 28.8327 93.7863 29.4116 93.4525 29.8697C93.1187 30.3278 92.6624 30.6705 92.0836 30.8977C91.5047 31.125 90.8478 31.2386 90.1127 31.2386ZM90.1287 26.37C90.537 26.37 90.885 26.2706 91.1727 26.0717C91.4603 25.8729 91.6787 25.587 91.8279 25.2141C91.977 24.8413 92.0516 24.3938 92.0516 23.8718C92.0516 23.3569 91.977 22.9059 91.8279 22.5188C91.6823 22.1317 91.4657 21.8317 91.178 21.6186C90.8939 21.402 90.5441 21.2937 90.1287 21.2937C89.699 21.2937 89.3403 21.4055 89.0527 21.6293C88.765 21.853 88.5484 22.1602 88.4028 22.5508C88.2572 22.9379 88.1844 23.3782 88.1844 23.8718C88.1844 24.3725 88.2572 24.8111 88.4028 25.1875C88.552 25.5604 88.7703 25.8516 89.058 26.0611C89.3492 26.267 89.7061 26.37 90.1287 26.37ZM95.5647 28V17.0909H97.4929V21.1712H97.5728C97.6723 20.9723 97.8125 20.761 97.9936 20.5373C98.1747 20.31 98.4198 20.1165 98.7287 19.9567C99.0377 19.7933 99.4319 19.7116 99.9113 19.7116C100.543 19.7116 101.113 19.8732 101.621 20.1964C102.132 20.516 102.537 20.9901 102.836 21.6186C103.137 22.2436 103.288 23.0107 103.288 23.9197C103.288 24.8182 103.141 25.5817 102.846 26.2102C102.552 26.8388 102.15 27.3182 101.642 27.6484C101.135 27.9787 100.559 28.1438 99.9166 28.1438C99.4478 28.1438 99.059 28.0657 98.75 27.9094C98.4411 27.7532 98.1925 27.565 98.0043 27.3448C97.8196 27.1211 97.6758 26.9098 97.5728 26.7109H97.461V28H95.5647ZM97.4556 23.9091C97.4556 24.4382 97.5302 24.9016 97.6794 25.2994C97.8321 25.6971 98.0505 26.0078 98.3346 26.2315C98.6222 26.4517 98.9702 26.5618 99.3786 26.5618C99.8047 26.5618 100.162 26.4482 100.449 26.2209C100.737 25.9901 100.954 25.6758 101.099 25.2781C101.248 24.8768 101.323 24.4205 101.323 23.9091C101.323 23.4013 101.25 22.9503 101.104 22.5561C100.959 22.1619 100.742 21.853 100.455 21.6293C100.167 21.4055 99.8083 21.2937 99.3786 21.2937C98.9667 21.2937 98.6169 21.402 98.3292 21.6186C98.0416 21.8352 97.8232 22.1388 97.674 22.5295C97.5284 22.9201 97.4556 23.38 97.4556 23.9091ZM104.478 28V19.8182H106.406V28H104.478ZM105.447 18.657C105.142 18.657 104.879 18.5558 104.659 18.3533C104.439 18.1474 104.329 17.9006 104.329 17.6129C104.329 17.3217 104.439 17.0749 104.659 16.8725C104.879 16.6665 105.142 16.5636 105.447 16.5636C105.756 16.5636 106.019 16.6665 106.235 16.8725C106.456 17.0749 106.566 17.3217 106.566 17.6129C106.566 17.9006 106.456 18.1474 106.235 18.3533C106.019 18.5558 105.756 18.657 105.447 18.657ZM107.939 28V19.8182H109.808V21.1818H109.894C110.043 20.7095 110.299 20.3455 110.661 20.0898C111.027 19.8306 111.444 19.701 111.913 19.701C112.019 19.701 112.138 19.7063 112.269 19.717C112.404 19.7241 112.516 19.7365 112.605 19.7543V21.5281C112.523 21.4996 112.394 21.4748 112.216 21.4535C112.042 21.4286 111.873 21.4162 111.71 21.4162C111.359 21.4162 111.043 21.4925 110.762 21.6452C110.485 21.7944 110.267 22.0021 110.107 22.2685C109.947 22.5348 109.867 22.842 109.867 23.19V28H107.939ZM116.135 28.1438C115.493 28.1438 114.917 27.9787 114.41 27.6484C113.902 27.3182 113.5 26.8388 113.206 26.2102C112.911 25.5817 112.764 24.8182 112.764 23.9197C112.764 23.0107 112.913 22.2436 113.211 21.6186C113.513 20.9901 113.919 20.516 114.431 20.1964C114.942 19.8732 115.512 19.7116 116.141 19.7116C116.62 19.7116 117.014 19.7933 117.323 19.9567C117.632 20.1165 117.877 20.31 118.058 20.5373C118.239 20.761 118.38 20.9723 118.479 21.1712H118.559V17.0909H120.493V28H118.596V26.7109H118.479C118.38 26.9098 118.236 27.1211 118.048 27.3448C117.859 27.565 117.611 27.7532 117.302 27.9094C116.993 28.0657 116.604 28.1438 116.135 28.1438ZM116.673 26.5618C117.082 26.5618 117.43 26.4517 117.717 26.2315C118.005 26.0078 118.223 25.6971 118.373 25.2994C118.522 24.9016 118.596 24.4382 118.596 23.9091C118.596 23.38 118.522 22.9201 118.373 22.5295C118.227 22.1388 118.01 21.8352 117.723 21.6186C117.439 21.402 117.089 21.2937 116.673 21.2937C116.244 21.2937 115.885 21.4055 115.597 21.6293C115.31 21.853 115.093 22.1619 114.948 22.5561C114.802 22.9503 114.729 23.4013 114.729 23.9091C114.729 24.4205 114.802 24.8768 114.948 25.2781C115.097 25.6758 115.315 25.9901 115.603 26.2209C115.894 26.4482 116.251 26.5618 116.673 26.5618ZM125.453 28V17.0909H127.43V21.7092H132.485V17.0909H134.466V28H132.485V23.3658H127.43V28H125.453ZM137.817 17.0909L140.219 21.0859H140.304L142.717 17.0909H144.97L141.609 22.5455L145.024 28H142.733L140.304 24.0316H140.219L137.79 28H135.51L138.957 22.5455L135.553 17.0909H137.817ZM149.769 28H146.072V17.0909H149.843C150.926 17.0909 151.857 17.3093 152.634 17.7461C153.416 18.1793 154.016 18.8026 154.435 19.6158C154.854 20.429 155.063 21.402 155.063 22.5348C155.063 23.6712 154.852 24.6477 154.429 25.4645C154.01 26.2812 153.405 26.908 152.613 27.3448C151.825 27.7816 150.877 28 149.769 28ZM148.048 26.2901H149.673C150.433 26.2901 151.067 26.1516 151.574 25.8746C152.082 25.5941 152.464 25.1768 152.72 24.6229C152.975 24.0653 153.103 23.3693 153.103 22.5348C153.103 21.7003 152.975 21.0078 152.72 20.4574C152.464 19.9034 152.086 19.4897 151.585 19.2163C151.088 18.9393 150.47 18.8008 149.731 18.8008H148.048V26.2901Z" fill="#111827"/>
<defs>
<linearGradient id="paint0_linear_709_1711" x1="1.26732" y1="1.3277" x2="17.7243" y2="23.1588" gradientUnits="userSpaceOnUse">
<stop stop-color="#429485"/>
<stop offset="1" stop-color="#1D4A43"/>
</linearGradient>
<linearGradient id="paint1_linear_709_1711" x1="2.80727" y1="11.0085" x2="16.2987" y2="24.0747" gradientUnits="userSpaceOnUse">
<stop stop-color="#2D6F64"/>
<stop offset="1" stop-color="#1D4A43"/>
</linearGradient>
<linearGradient id="paint2_linear_709_1711" x1="13.4735" y1="24.2041" x2="6.96124" y2="32.1418" gradientUnits="userSpaceOnUse">
<stop stop-color="#4D3A45"/>
<stop offset="1" stop-color="#8E6F80"/>
</linearGradient>
<linearGradient id="paint3_linear_709_1711" x1="21.4066" y1="8.18715" x2="16.8769" y2="26.7488" gradientUnits="userSpaceOnUse">
<stop stop-color="#FCC46B"/>
<stop offset="1" stop-color="#FEE1A3"/>
</linearGradient>
<linearGradient id="paint4_linear_709_1711" x1="11.361" y1="29.5957" x2="5.79971" y2="37.7439" gradientUnits="userSpaceOnUse">
<stop stop-color="#4D3A45"/>
<stop offset="1" stop-color="#8E6F80"/>
</linearGradient>
<linearGradient id="paint5_linear_709_1711" x1="30.0395" y1="7.64897" x2="17.2758" y2="23.6669" gradientUnits="userSpaceOnUse">
<stop stop-color="#FDD587"/>
<stop offset="0.489582" stop-color="#FDD587"/>
<stop offset="1" stop-color="#FEEBC6"/>
</linearGradient>
<linearGradient id="paint6_linear_709_1711" x1="6.52842" y1="11.7331" x2="16.9219" y2="24.7158" gradientUnits="userSpaceOnUse">
<stop stop-color="#A2DECF"/>
<stop offset="1" stop-color="#429485"/>
</linearGradient>
</defs>
</svg>
