<svg width="211" height="235" viewBox="0 0 211 235" fill="none" xmlns="http://www.w3.org/2000/svg">
<path d="M66.3327 55L0.666016 1.33337L0.886081 14.2072C1.17904 31.3456 5.80488 48.1311 14.3327 63L22.2912 64.5202C36.6452 67.262 50.3856 72.5747 62.8504 80.2024L79.6259 90.468C85.5444 94.0898 90.3847 99.2311 93.6432 105.357C101.069 119.317 102.08 135.81 96.4152 150.573L94.3327 156L101.304 142.868C106.161 133.718 109.666 123.693 109.666 113.333C109.031 97.4688 101.483 82.6773 89.0085 72.855L66.3327 55Z" fill="url(#paint0_linear_463_673)" stroke="#337569" stroke-width="0.3"/>
<path d="M13.6667 61.6667L8 61.3334L10.7464 67.9669C22.8627 97.2324 46.089 120.499 75.3333 132.667L84.6667 144.667L94 156.667C100.138 139.404 92.7705 120.245 76.6485 111.542L67 106.333C45.6751 97.1941 27.4373 82.1006 14.4715 62.861L13.6667 61.6667Z" fill="url(#paint1_linear_463_673)"/>
<path d="M35.334 209.333L43.4098 197.484C48.2373 190.4 54.673 184.56 62.1906 180.441C67.2946 177.645 72.1446 174.408 76.6851 170.767L86.2869 163.068L94.0007 156.667L84.6673 144.667L75.334 132.667C61.7637 147.385 50.5535 164.266 42.6673 182.667C35.6673 199 35.334 209.333 35.334 209.333Z" fill="url(#paint2_linear_463_673)" stroke="#4E3B46" stroke-width="0.3" stroke-miterlimit="16"/>
<path d="M90.3808 167.839L70.334 175.667L97.6673 153.667C114.534 140.615 121.613 118.519 115.471 98.0962L112.334 87.6667L109.144 76.5009C104.593 60.5738 117.514 45.066 134.001 46.6667L167.667 51.3334L164.52 52.1571C145.931 57.0214 133.857 74.946 136.334 94C136.334 94 137.541 108.301 136.334 117.333C136.046 119.489 135.547 121.892 134.952 124.309C132.318 135.002 125.668 144.139 117.395 151.406C109.416 158.415 100.274 163.976 90.3808 167.839Z" fill="url(#paint3_linear_463_673)" stroke="#FCCA76" stroke-width="0.3" stroke-miterlimit="16"/>
<path d="M33.0013 222.987L32 233C43.0097 223.311 52.0668 211.609 58.6842 198.521L63.6667 188.667L70.6667 175L63 179.333C63 179.333 58.4374 181.826 55.6667 183.667C53.1077 185.367 51.6978 186.372 49.3333 188.333C44.6308 192.235 41.0446 197.301 38.1764 202.696C37.9986 203.03 37.8277 203.356 37.6667 203.667C34.6003 209.593 33.6653 216.347 33.0013 222.987Z" fill="url(#paint4_linear_463_673)" stroke="#5F4956" stroke-width="0.3" stroke-miterlimit="16"/>
<path d="M100.795 144.086L93.6673 157C113.559 146.326 123.211 123.142 116.771 101.505L110.667 81C107.445 62.1892 123.441 45.6737 142.345 48.2946L166.667 51.6667L208.667 45.3334L152.184 46.3334L140.59 41.5925C128.221 36.5347 114.053 38.9341 104.039 47.7825C101.887 49.6836 100.164 52.0202 98.9842 54.6374L98.0691 56.6667C95.0382 66.0548 95.8751 76.2639 100.395 85.033L104.157 92.3334C110.798 109.224 109.566 128.196 100.795 144.086Z" fill="url(#paint5_linear_463_673)" stroke="#FDD587" stroke-width="0.3" stroke-miterlimit="16"/>
<path d="M94.2852 145.077L93.819 156.667C111.467 129.812 100.527 94.5614 72.9536 78.0585C66.7759 74.361 66.8621 74.4788 60.3682 71.3684C57.3349 69.9156 53.4833 68.4399 49.6024 67.0926C38.019 63.0711 25.7382 61.6678 13.4766 61.6678C25.555 80.2596 42.5445 95.1448 62.5627 104.674L71.2976 108.833C85.759 114.95 94.9162 129.388 94.2852 145.077Z" fill="url(#paint6_linear_463_673)"/>
<defs>
<linearGradient id="paint0_linear_463_673" x1="3.66601" y1="8.00004" x2="101.666" y2="143.333" gradientUnits="userSpaceOnUse">
<stop stop-color="#429485"/>
<stop offset="1" stop-color="#1D4A43"/>
</linearGradient>
<linearGradient id="paint1_linear_463_673" x1="13.3333" y1="66.3334" x2="94.6667" y2="148.333" gradientUnits="userSpaceOnUse">
<stop stop-color="#2D6F64"/>
<stop offset="1" stop-color="#1D4A43"/>
</linearGradient>
<linearGradient id="paint2_linear_463_673" x1="80.253" y1="145.846" x2="41.3494" y2="195.209" gradientUnits="userSpaceOnUse">
<stop stop-color="#4D3A45"/>
<stop offset="1" stop-color="#8E6F80"/>
</linearGradient>
<linearGradient id="paint3_linear_463_673" x1="130.001" y1="49.3334" x2="103.667" y2="161.667" gradientUnits="userSpaceOnUse">
<stop stop-color="#FCC46B"/>
<stop offset="1" stop-color="#FEE1A3"/>
</linearGradient>
<linearGradient id="paint4_linear_463_673" x1="67" y1="178.333" x2="34" y2="228.667" gradientUnits="userSpaceOnUse">
<stop stop-color="#4D3A45"/>
<stop offset="1" stop-color="#8E6F80"/>
</linearGradient>
<linearGradient id="paint5_linear_463_673" x1="183.977" y1="46.3334" x2="107.923" y2="145.407" gradientUnits="userSpaceOnUse">
<stop stop-color="#FDD587"/>
<stop offset="0.489582" stop-color="#FDD587"/>
<stop offset="1" stop-color="#FEEBC6"/>
</linearGradient>
<linearGradient id="paint6_linear_463_673" x1="36.6875" y1="70.6994" x2="98.7192" y2="151.362" gradientUnits="userSpaceOnUse">
<stop stop-color="#A2DECF"/>
<stop offset="1" stop-color="#429485"/>
</linearGradient>
</defs>
</svg>
