<svg width="425" height="856" viewBox="0 0 425 856" fill="none" xmlns="http://www.w3.org/2000/svg">
<g filter="url(#filter0_i_354_8729)">
<rect x="3" width="419" height="856" rx="62" fill="#1A1A1A"/>
</g>
<rect x="3.5" y="0.5" width="418" height="855" rx="61.5" stroke="url(#paint0_linear_354_8729)" stroke-opacity="0.5"/>
<rect x="7" y="4" width="411" height="848" rx="58" fill="black"/>
<g filter="url(#filter1_i_354_8729)">
<path d="M0 137.6C0 137.04 0 136.76 0.108993 136.546C0.204867 136.358 0.357847 136.205 0.546009 136.109C0.759921 136 1.03995 136 1.6 136H3V166H1.6C1.03995 166 0.759921 166 0.546009 165.891C0.357847 165.795 0.204867 165.642 0.108993 165.454C0 165.24 0 164.96 0 164.4V137.6Z" fill="#333333"/>
</g>
<g filter="url(#filter2_i_354_8729)">
<path d="M0 199.6C0 199.04 0 198.76 0.108993 198.546C0.204867 198.358 0.357847 198.205 0.546009 198.109C0.759921 198 1.03995 198 1.6 198H3V260H1.6C1.03995 260 0.759921 260 0.546009 259.891C0.357847 259.795 0.204867 259.642 0.108993 259.454C0 259.24 0 258.96 0 258.4V199.6Z" fill="#333333"/>
</g>
<g filter="url(#filter3_i_354_8729)">
<path d="M0 279.6C0 279.04 0 278.76 0.108993 278.546C0.204867 278.358 0.357847 278.205 0.546009 278.109C0.759921 278 1.03995 278 1.6 278H3V340H1.6C1.03995 340 0.759921 340 0.546009 339.891C0.357847 339.795 0.204867 339.642 0.108993 339.454C0 339.24 0 338.96 0 338.4V279.6Z" fill="#333333"/>
</g>
<g filter="url(#filter4_i_354_8729)">
<path d="M422 220H423.4C423.96 220 424.24 220 424.454 220.109C424.642 220.205 424.795 220.358 424.891 220.546C425 220.76 425 221.04 425 221.6V318.4C425 318.96 425 319.24 424.891 319.454C424.795 319.642 424.642 319.795 424.454 319.891C424.24 320 423.96 320 423.4 320H422V220Z" fill="#333333"/>
</g>
<rect x="25" y="33" width="375" height="801" rx="40" fill="white"/>
<g clip-path="url(#clip0_354_8729)">
<path d="M112.074 31.2012H309.025V31.2012C307.131 31.7432 305.804 33.4452 305.739 35.414L305.713 36.203V36.203C305.713 48.341 295.873 58.1808 283.735 58.1808H137.365C125.227 58.1808 115.387 48.341 115.387 36.203V36.203L115.361 35.414C115.296 33.4452 113.968 31.7432 112.074 31.2012V31.2012Z" fill="black"/>
<path opacity="0.35" d="M364.324 49.0381H379.312C380.389 49.0381 381.261 49.9112 381.261 50.9873V56.3828C381.261 57.459 380.389 58.3311 379.312 58.3311H364.324C363.248 58.3311 362.375 57.459 362.375 56.3828V50.9873C362.375 49.9112 363.248 49.0381 364.324 49.0381Z" stroke="black" stroke-width="0.89932"/>
<path opacity="0.4" d="M382.609 51.8867V55.484C383.333 55.1793 383.804 54.4706 383.804 53.6854C383.804 52.9001 383.333 52.1914 382.609 51.8867" fill="black"/>
<path d="M363.725 51.3769C363.725 50.8306 364.168 50.3877 364.714 50.3877H378.923C379.469 50.3877 379.912 50.8306 379.912 51.3769V55.9935C379.912 56.5398 379.469 56.9827 378.923 56.9827H364.714C364.168 56.9827 363.725 56.5398 363.725 55.9935V51.3769Z" fill="black"/>
<path fill-rule="evenodd" clip-rule="evenodd" d="M350.532 50.634C352.525 50.6341 354.441 51.3998 355.885 52.7729C355.994 52.8789 356.168 52.8775 356.275 52.7699L357.315 51.7207C357.369 51.6661 357.399 51.5921 357.399 51.5151C357.398 51.4382 357.367 51.3645 357.312 51.3106C353.522 47.6777 347.541 47.6777 343.751 51.3106C343.696 51.3645 343.665 51.4381 343.664 51.5151C343.664 51.592 343.694 51.666 343.748 51.7207L344.788 52.7699C344.895 52.8777 345.069 52.879 345.178 52.7729C346.622 51.3997 348.539 50.634 350.532 50.634ZM350.532 54.0475C351.627 54.0474 352.683 54.4544 353.494 55.1893C353.604 55.2936 353.777 55.2914 353.884 55.1842L354.922 54.135C354.977 54.08 355.007 54.0053 355.007 53.9278C355.006 53.8502 354.974 53.7762 354.918 53.7222C352.447 51.4232 348.619 51.4232 346.148 53.7222C346.092 53.7762 346.06 53.8502 346.059 53.9278C346.058 54.0054 346.089 54.0801 346.144 54.135L347.182 55.1842C347.289 55.2914 347.462 55.2936 347.572 55.1893C348.383 54.4549 349.438 54.048 350.532 54.0475ZM352.612 56.3442C352.614 56.422 352.583 56.497 352.527 56.5515L350.731 58.3642C350.679 58.4175 350.607 58.4475 350.532 58.4475C350.457 58.4475 350.385 58.4175 350.332 58.3642L348.536 56.5515C348.48 56.497 348.45 56.4219 348.452 56.3441C348.453 56.2663 348.487 56.1927 348.545 56.1405C349.692 55.1703 351.372 55.1703 352.519 56.1405C352.577 56.1927 352.61 56.2664 352.612 56.3442Z" fill="black"/>
<path fill-rule="evenodd" clip-rule="evenodd" d="M338.245 48.8887H337.345C336.849 48.8887 336.446 49.2913 336.446 49.788V57.5821C336.446 58.0788 336.849 58.4814 337.345 58.4814H338.245C338.741 58.4814 339.144 58.0788 339.144 57.5821V49.788C339.144 49.2913 338.741 48.8887 338.245 48.8887ZM333.148 50.9871H334.048C334.544 50.9871 334.947 51.3897 334.947 51.8864V57.5821C334.947 58.0788 334.544 58.4814 334.048 58.4814H333.148C332.652 58.4814 332.249 58.0788 332.249 57.5821V51.8864C332.249 51.3897 332.652 50.9871 333.148 50.9871ZM329.851 53.0855H328.952C328.455 53.0855 328.052 53.4881 328.052 53.9848V57.5821C328.052 58.0788 328.455 58.4814 328.952 58.4814H329.851C330.348 58.4814 330.75 58.0788 330.75 57.5821V53.9848C330.75 53.4881 330.348 53.0855 329.851 53.0855ZM325.654 54.8841H324.755C324.258 54.8841 323.855 55.2868 323.855 55.7835V57.5821C323.855 58.0788 324.258 58.4814 324.755 58.4814H325.654C326.151 58.4814 326.553 58.0788 326.553 57.5821V55.7835C326.553 55.2868 326.151 54.8841 325.654 54.8841Z" fill="black"/>
<path d="M60.7418 58.8691V58.6343C61.2919 58.6258 61.8039 58.4989 62.2779 58.2534C62.7519 58.0037 63.2089 57.57 63.649 56.9521C64.0933 56.3343 64.4022 55.6551 64.5758 54.9146C63.9114 55.342 63.3105 55.5557 62.773 55.5557C62.1679 55.5557 61.6495 55.3229 61.2178 54.8574C60.7862 54.3877 60.5704 53.7656 60.5704 52.9912C60.5704 52.238 60.7862 51.5672 61.2178 50.979C61.7383 50.2638 62.4175 49.9062 63.2554 49.9062C63.9621 49.9062 64.5673 50.1982 65.0709 50.7822C65.6887 51.5059 65.9976 52.3988 65.9976 53.4609C65.9976 54.4173 65.7628 55.3102 65.293 56.1396C64.8233 56.9648 64.1695 57.6504 63.3316 58.1963C62.6503 58.6449 61.9076 58.8691 61.1036 58.8691H60.7418ZM64.6773 54.4448C64.7535 53.8947 64.7916 53.4546 64.7916 53.1245C64.7916 52.714 64.7217 52.2718 64.5821 51.7979C64.4424 51.3197 64.2436 50.9536 63.9854 50.6997C63.7315 50.4458 63.4416 50.3188 63.1158 50.3188C62.7392 50.3188 62.4091 50.4881 62.1256 50.8267C61.842 51.1652 61.7003 51.6688 61.7003 52.3374C61.7003 53.2303 61.8886 53.9285 62.2652 54.4321C62.5403 54.7961 62.8788 54.978 63.2808 54.978C63.4755 54.978 63.7061 54.9315 63.9727 54.8384C64.2393 54.7453 64.4742 54.6141 64.6773 54.4448ZM67.8907 52.6992C68.0854 52.6992 68.2504 52.769 68.3858 52.9087C68.5255 53.0441 68.5953 53.2091 68.5953 53.4038C68.5953 53.5985 68.5255 53.7656 68.3858 53.9053C68.2504 54.0407 68.0854 54.1084 67.8907 54.1084C67.696 54.1084 67.5289 54.0407 67.3892 53.9053C67.2538 53.7656 67.1861 53.5985 67.1861 53.4038C67.1861 53.2091 67.2538 53.0441 67.3892 52.9087C67.5289 52.769 67.696 52.6992 67.8907 52.6992ZM67.878 57.4536C68.0769 57.4536 68.244 57.5234 68.3795 57.6631C68.5191 57.8027 68.5889 57.9699 68.5889 58.1646C68.5889 58.3592 68.5191 58.5264 68.3795 58.666C68.2398 58.8014 68.0727 58.8691 67.878 58.8691C67.6833 58.8691 67.5162 58.8014 67.3765 58.666C67.2411 58.5264 67.1734 58.3592 67.1734 58.1646C67.1734 57.9699 67.2411 57.8027 67.3765 57.6631C67.5162 57.5234 67.6833 57.4536 67.878 57.4536ZM75.2237 55.5176V56.4189H74.0684V58.6914H73.0211V56.4189H69.3775V55.6064L73.3702 49.9062H74.0684V55.5176H75.2237ZM73.0211 55.5176V51.2456L69.9996 55.5176H73.0211ZM76.6978 50.9282L78.7925 49.9062H79.002V57.1743C79.002 57.6567 79.0211 57.9572 79.0591 58.0757C79.1015 58.1942 79.1861 58.2852 79.3131 58.3486C79.44 58.4121 79.6981 58.4481 80.0875 58.4565V58.6914H76.8502V58.4565C77.2564 58.4481 77.5188 58.4142 77.6373 58.355C77.7558 58.2915 77.8383 58.209 77.8848 58.1074C77.9314 58.0016 77.9547 57.6906 77.9547 57.1743V52.5278C77.9547 51.9015 77.9335 51.4995 77.8912 51.3218C77.8616 51.1864 77.8065 51.0869 77.7261 51.0234C77.65 50.96 77.5569 50.9282 77.4468 50.9282C77.2903 50.9282 77.0723 50.9938 76.793 51.125L76.6978 50.9282Z" fill="black"/>
</g>
<defs>
<filter id="filter0_i_354_8729" x="3" y="0" width="419" height="856" filterUnits="userSpaceOnUse" color-interpolation-filters="sRGB">
<feFlood flood-opacity="0" result="BackgroundImageFix"/>
<feBlend mode="normal" in="SourceGraphic" in2="BackgroundImageFix" result="shape"/>
<feColorMatrix in="SourceAlpha" type="matrix" values="0 0 0 0 0 0 0 0 0 0 0 0 0 0 0 0 0 0 127 0" result="hardAlpha"/>
<feOffset/>
<feGaussianBlur stdDeviation="4"/>
<feComposite in2="hardAlpha" operator="arithmetic" k2="-1" k3="1"/>
<feColorMatrix type="matrix" values="0 0 0 0 1 0 0 0 0 1 0 0 0 0 1 0 0 0 0.9 0"/>
<feBlend mode="normal" in2="shape" result="effect1_innerShadow_354_8729"/>
</filter>
<filter id="filter1_i_354_8729" x="0" y="136" width="4" height="30" filterUnits="userSpaceOnUse" color-interpolation-filters="sRGB">
<feFlood flood-opacity="0" result="BackgroundImageFix"/>
<feBlend mode="normal" in="SourceGraphic" in2="BackgroundImageFix" result="shape"/>
<feColorMatrix in="SourceAlpha" type="matrix" values="0 0 0 0 0 0 0 0 0 0 0 0 0 0 0 0 0 0 127 0" result="hardAlpha"/>
<feOffset dx="1"/>
<feGaussianBlur stdDeviation="1"/>
<feComposite in2="hardAlpha" operator="arithmetic" k2="-1" k3="1"/>
<feColorMatrix type="matrix" values="0 0 0 0 1 0 0 0 0 1 0 0 0 0 1 0 0 0 0.5 0"/>
<feBlend mode="normal" in2="shape" result="effect1_innerShadow_354_8729"/>
</filter>
<filter id="filter2_i_354_8729" x="0" y="198" width="4" height="62" filterUnits="userSpaceOnUse" color-interpolation-filters="sRGB">
<feFlood flood-opacity="0" result="BackgroundImageFix"/>
<feBlend mode="normal" in="SourceGraphic" in2="BackgroundImageFix" result="shape"/>
<feColorMatrix in="SourceAlpha" type="matrix" values="0 0 0 0 0 0 0 0 0 0 0 0 0 0 0 0 0 0 127 0" result="hardAlpha"/>
<feOffset dx="1"/>
<feGaussianBlur stdDeviation="1"/>
<feComposite in2="hardAlpha" operator="arithmetic" k2="-1" k3="1"/>
<feColorMatrix type="matrix" values="0 0 0 0 1 0 0 0 0 1 0 0 0 0 1 0 0 0 0.5 0"/>
<feBlend mode="normal" in2="shape" result="effect1_innerShadow_354_8729"/>
</filter>
<filter id="filter3_i_354_8729" x="0" y="278" width="4" height="62" filterUnits="userSpaceOnUse" color-interpolation-filters="sRGB">
<feFlood flood-opacity="0" result="BackgroundImageFix"/>
<feBlend mode="normal" in="SourceGraphic" in2="BackgroundImageFix" result="shape"/>
<feColorMatrix in="SourceAlpha" type="matrix" values="0 0 0 0 0 0 0 0 0 0 0 0 0 0 0 0 0 0 127 0" result="hardAlpha"/>
<feOffset dx="1"/>
<feGaussianBlur stdDeviation="1"/>
<feComposite in2="hardAlpha" operator="arithmetic" k2="-1" k3="1"/>
<feColorMatrix type="matrix" values="0 0 0 0 1 0 0 0 0 1 0 0 0 0 1 0 0 0 0.5 0"/>
<feBlend mode="normal" in2="shape" result="effect1_innerShadow_354_8729"/>
</filter>
<filter id="filter4_i_354_8729" x="421" y="220" width="4" height="100" filterUnits="userSpaceOnUse" color-interpolation-filters="sRGB">
<feFlood flood-opacity="0" result="BackgroundImageFix"/>
<feBlend mode="normal" in="SourceGraphic" in2="BackgroundImageFix" result="shape"/>
<feColorMatrix in="SourceAlpha" type="matrix" values="0 0 0 0 0 0 0 0 0 0 0 0 0 0 0 0 0 0 127 0" result="hardAlpha"/>
<feOffset dx="-1"/>
<feGaussianBlur stdDeviation="1"/>
<feComposite in2="hardAlpha" operator="arithmetic" k2="-1" k3="1"/>
<feColorMatrix type="matrix" values="0 0 0 0 1 0 0 0 0 1 0 0 0 0 1 0 0 0 0.5 0"/>
<feBlend mode="normal" in2="shape" result="effect1_innerShadow_354_8729"/>
</filter>
<linearGradient id="paint0_linear_354_8729" x1="212.5" y1="0" x2="212.5" y2="856" gradientUnits="userSpaceOnUse">
<stop stop-color="white" stop-opacity="0.6"/>
<stop offset="1" stop-color="white" stop-opacity="0.3"/>
</linearGradient>
<clipPath id="clip0_354_8729">
<rect width="372.318" height="39.5701" fill="white" transform="translate(25 33)"/>
</clipPath>
</defs>
</svg>
