<svg width="348" height="380" viewBox="0 0 348 380" fill="none" xmlns="http://www.w3.org/2000/svg">
<path d="M167.499 263C235.998 172.158 124.749 109.648 27.4697 29.5595C26.4951 66.3568 30.2063 86.7585 47.6885 122.567C169.177 150.414 184.518 205.583 167.499 263Z" fill="url(#paint0_linear_468_14293)"/>
<path d="M27.4697 29.5595L27.565 29.4437C27.5207 29.4073 27.4596 29.3993 27.4074 29.4231C27.3553 29.4468 27.3212 29.4983 27.3197 29.5556L27.4697 29.5595ZM167.499 263L167.356 262.957L167.619 263.09L167.499 263ZM47.6885 122.567L47.5537 122.633C47.5736 122.674 47.6108 122.704 47.655 122.714L47.6885 122.567ZM27.4697 29.5595L27.3743 29.6753C51.6923 49.6959 76.8967 68.6286 99.9279 87.1643C122.966 105.706 143.842 123.859 159.537 142.345C175.233 160.83 185.737 179.636 188.049 199.481C190.36 219.321 184.487 240.223 167.38 262.91L167.499 263L167.619 263.09C184.762 240.356 190.669 219.379 188.347 199.446C186.025 179.519 175.48 160.658 159.766 142.15C144.051 123.642 123.156 105.474 100.116 86.9306C77.0686 68.3819 51.8869 49.4675 27.565 29.4437L27.4697 29.5595ZM27.4697 29.5595L27.3197 29.5556C26.8323 47.9597 27.5163 62.2726 30.511 76.4651C33.5057 90.6577 38.8095 104.723 47.5537 122.633L47.6885 122.567L47.8233 122.502C39.0853 104.603 33.7924 90.563 30.8046 76.4031C27.8167 62.2432 27.1325 47.9566 27.6196 29.5635L27.4697 29.5595ZM47.6885 122.567L47.655 122.714C108.385 136.634 142.548 157.375 159.411 181.78C176.269 206.178 175.858 234.271 167.356 262.957L167.499 263L167.643 263.043C176.159 234.311 176.587 206.112 159.657 181.609C142.732 157.114 108.481 136.348 47.722 122.421L47.6885 122.567Z" fill="#5AB9A6"/>
<path d="M166.5 262L170.275 254.839C190.254 216.932 176.987 169.755 139.5 149C128.947 143.157 123.5 140 111.5 135C108.038 133.558 103.843 131.917 99.5313 130.28C82.7711 123.916 64.9277 121 47 121L55.8009 133.814C67.8768 151.397 82.912 167.037 101.5 177.5C112.273 183.564 117.436 187.465 128.5 193C150.028 203.77 166.413 223.706 166.468 247.778L166.5 262Z" fill="url(#paint1_linear_468_14293)" stroke="#5AB9A6" stroke-width="0.3"/>
<path d="M71 378.983C71 378.983 87.6901 367.168 95.7934 357.108C100.374 351.42 104.392 343.586 107.62 336.033C114.284 320.44 121.161 304.795 131 290.983C131 290.983 122.536 295.345 117.612 298.441C112.652 301.56 109.769 303.204 105.215 306.893C98.5041 312.33 89.843 322.803 89.843 322.803C77.6172 338.932 71 358.744 71 378.983Z" fill="url(#paint2_linear_468_14293)" stroke="#4D3A45" stroke-width="0.3" stroke-linejoin="round"/>
<path d="M168 262.177L141.347 226C141.347 226 120.265 243.86 110.168 258.142C90.7832 285.56 81 339 81 339L85.6532 332.232C97.8006 314.562 113.955 300.016 132.798 289.782C132.798 289.782 146.199 281.22 153.919 275.218C160.552 270.061 168 262.177 168 262.177Z" fill="url(#paint3_linear_468_14293)" stroke="#4D3A45" stroke-width="0.3"/>
<path d="M46.998 120.983H37.9531C37.9531 120.983 56.8781 163.396 76.9794 184.533C97.3266 205.928 139.521 227.23 139.521 227.23L167.498 263C167.498 263 171.146 245.852 169.542 235.67C167.837 224.854 162.234 215.811 157.447 211.488C136.269 192.358 118.768 189.397 94.7522 171.524C73.6335 155.807 46.998 120.983 46.998 120.983Z" fill="url(#paint4_linear_468_14293)"/>
<path d="M181.276 235.5L167.498 263L175.44 258.51C200.678 244.241 216.282 217.492 216.282 188.5C202.809 164.623 206.705 134.72 225.845 115.092L229.715 111.124C229.715 111.124 250.382 108.1 274.149 105.109C297.915 102.119 346.999 105.109 346.999 105.109C346.999 105.109 319.423 99.6979 301.015 98.1092C284.334 96.6695 253.482 96.5891 253.482 96.5891L251.884 95.3781C224.782 74.8391 181.905 75.9687 167.198 106.629C162.273 116.899 164.615 129.684 164.615 129.684C166.512 138.408 172.444 150.425 176.659 158.265C179.547 163.638 182.235 169.124 184.394 174.829C191.876 194.6 190.745 216.6 181.276 235.5Z" fill="url(#paint5_linear_468_14293)" stroke="#FDD387" stroke-width="0.3" stroke-linejoin="bevel"/>
<path d="M203.907 189.826L197.521 136.183C195.315 117.655 206.405 99.5395 225.058 99.0348C225.903 99.012 226.755 99 227.614 99C246.04 99 256 107.539 256 107.539C241.272 117.027 233.112 133.974 234.877 151.404L236.578 168.197C236.578 168.197 238.382 190.206 236.578 203.789C233.278 228.652 219.025 250.812 197.175 263.125L191.284 266.445C185.964 269.443 180.431 272.045 174.729 274.232L131 291L170.345 259.936L181.257 250.102C198.149 234.881 206.595 212.405 203.907 189.826Z" fill="url(#paint6_linear_468_14293)" stroke="#FDD387" stroke-width="0.3"/>
<defs>
<linearGradient id="paint0_linear_468_14293" x1="76.6058" y1="7.36048" x2="-12.9327" y2="88.2209" gradientUnits="userSpaceOnUse">
<stop stop-color="#429485"/>
<stop offset="1" stop-color="#1D4A43"/>
</linearGradient>
<linearGradient id="paint1_linear_468_14293" x1="81.1073" y1="134.31" x2="172.395" y2="253.661" gradientUnits="userSpaceOnUse">
<stop stop-color="#A2DECF"/>
<stop offset="1" stop-color="#429485"/>
</linearGradient>
<linearGradient id="paint2_linear_468_14293" x1="123.066" y1="297.447" x2="73.7942" y2="372.401" gradientUnits="userSpaceOnUse">
<stop stop-color="#4D3A45"/>
<stop offset="1" stop-color="#8E6F80"/>
</linearGradient>
<linearGradient id="paint3_linear_468_14293" x1="148.387" y1="244.582" x2="90.6502" y2="318.483" gradientUnits="userSpaceOnUse">
<stop stop-color="#4D3A45"/>
<stop offset="1" stop-color="#8E6F80"/>
</linearGradient>
<linearGradient id="paint4_linear_468_14293" x1="45.2359" y1="128.379" x2="165.225" y2="240.068" gradientUnits="userSpaceOnUse">
<stop stop-color="#2D6F64"/>
<stop offset="1" stop-color="#1D4A43"/>
</linearGradient>
<linearGradient id="paint5_linear_468_14293" x1="302.048" y1="96.5892" x2="188.177" y2="247.297" gradientUnits="userSpaceOnUse">
<stop stop-color="#FDD587"/>
<stop offset="0.489582" stop-color="#FDD587"/>
<stop offset="1" stop-color="#FEEBC6"/>
</linearGradient>
<linearGradient id="paint6_linear_468_14293" x1="220.145" y1="101.507" x2="180.306" y2="270.329" gradientUnits="userSpaceOnUse">
<stop stop-color="#FCC46B"/>
<stop offset="1" stop-color="#FEE1A3"/>
</linearGradient>
</defs>
</svg>
